<svg id="visual" viewBox="0 0 900 250" width="900" height="250" xmlns="http://www.w3.org/2000/svg" xmlns:xlink="http://www.w3.org/1999/xlink" version="1.1"><path d="M0 144L21.5 152.2C43 160.3 86 176.7 128.8 182.3C171.7 188 214.3 183 257.2 184.5C300 186 343 194 385.8 188.5C428.7 183 471.3 164 514.2 151.8C557 139.7 600 134.3 642.8 129.3C685.7 124.3 728.3 119.7 771.2 130.5C814 141.3 857 167.7 878.5 180.8L900 194L900 251L878.5 251C857 251 814 251 771.2 251C728.3 251 685.7 251 642.8 251C600 251 557 251 514.2 251C471.3 251 428.7 251 385.8 251C343 251 300 251 257.2 251C214.3 251 171.7 251 128.8 251C86 251 43 251 21.5 251L0 251Z" fill="#eabdcf"></path><path d="M0 219L21.5 218C43 217 86 215 128.8 202.3C171.7 189.7 214.3 166.3 257.2 163C300 159.7 343 176.3 385.8 182C428.7 187.7 471.3 182.3 514.2 176.7C557 171 600 165 642.8 163.3C685.7 161.7 728.3 164.3 771.2 165.3C814 166.3 857 165.7 878.5 165.3L900 165L900 251L878.5 251C857 251 814 251 771.2 251C728.3 251 685.7 251 642.8 251C600 251 557 251 514.2 251C471.3 251 428.7 251 385.8 251C343 251 300 251 257.2 251C214.3 251 171.7 251 128.8 251C86 251 43 251 21.5 251L0 251Z" fill="#e7a3bf"></path><path d="M0 221L21.5 224.5C43 228 86 235 128.8 237.3C171.7 239.7 214.3 237.3 257.2 232.2C300 227 343 219 385.8 211.7C428.7 204.3 471.3 197.7 514.2 196.2C557 194.7 600 198.3 642.8 206.2C685.7 214 728.3 226 771.2 223C814 220 857 202 878.5 193L900 184L900 251L878.5 251C857 251 814 251 771.2 251C728.3 251 685.7 251 642.8 251C600 251 557 251 514.2 251C471.3 251 428.7 251 385.8 251C343 251 300 251 257.2 251C214.3 251 171.7 251 128.8 251C86 251 43 251 21.5 251L0 251Z" fill="#e389ae"></path></svg>